<?xml version="1.0" standalone="no"?>
<!DOCTYPE svg PUBLIC "-//W3C//DTD SVG 20010904//EN"
 "http://www.w3.org/TR/2001/REC-SVG-20010904/DTD/svg10.dtd">
<svg version="1.0" xmlns="http://www.w3.org/2000/svg"
 width="1080.000000pt" height="1080.000000pt" viewBox="0 0 1080.000000 1080.000000"
 preserveAspectRatio="xMidYMid meet">

<g transform="translate(0.000000,1080.000000) scale(0.100000,-0.100000)"
fill="#000000" stroke="none">
<path d="M7284 6737 c-3 -8 -3 -56 -2 -108 l3 -94 803 -3 802 -2 0 -775 0
-775 110 0 110 0 0 885 0 885 -910 0 c-747 0 -912 -2 -916 -13z"/>
<path d="M1488 5438 c-1 -392 -1 -730 1 -750 l3 -38 914 0 914 0 0 110 0 110
-810 0 -810 0 0 640 0 640 -104 0 -104 0 -4 -712z"/>
<path d="M2682 5808 c-73 -189 -135 -353 -138 -365 -6 -22 -4 -23 64 -23 l70
0 67 195 c37 108 71 197 75 200 3 2 38 -85 76 -193 l70 -197 73 -3 c57 -2 72
0 68 10 -2 7 -64 166 -137 353 -73 187 -134 346 -137 353 -3 6 -8 12 -12 12
-4 0 -66 -154 -139 -342z"/>
<path d="M3240 5809 c0 -188 2 -340 4 -338 48 58 181 205 186 207 4 1 54 -56
111 -127 l104 -130 88 0 c48 -1 87 2 87 7 -1 4 -66 83 -145 177 -80 93 -144
173 -143 177 2 4 67 86 146 182 78 97 142 178 142 181 0 3 -37 5 -83 5 l-84 0
-134 -166 -134 -165 -5 163 -5 163 -67 3 -68 3 0 -342z"/>
<path d="M3957 6143 c-4 -3 -7 -33 -7 -65 l0 -58 134 0 c73 0 148 -5 166 -11
59 -21 72 -100 22 -139 -22 -18 -40 -20 -173 -20 l-149 0 0 -215 0 -215 70 0
70 0 0 146 0 145 42 -3 42 -3 65 -142 66 -143 73 0 c87 0 87 -17 -3 176 l-64
137 45 29 c57 36 84 90 84 173 0 108 -46 171 -147 201 -48 14 -323 20 -336 7z"/>
<path d="M4837 6140 c-156 -40 -257 -179 -257 -355 0 -114 52 -234 126 -290
70 -54 121 -70 224 -70 110 0 160 18 229 81 193 174 144 515 -87 616 -54 23
-177 32 -235 18z m179 -139 c78 -35 124 -117 124 -218 0 -98 -43 -173 -124
-215 -56 -29 -149 -22 -204 14 -108 72 -126 273 -34 372 59 63 159 83 238 47z"/>
<path d="M4881 5829 c-41 -44 -15 -109 44 -109 59 0 91 54 58 99 -27 35 -74
40 -102 10z"/>
<path d="M5420 5785 l0 -365 65 0 65 0 2 208 3 207 100 -192 100 -193 62 0 63
0 94 188 95 187 0 -112 1 -113 70 0 70 0 -2 273 -3 272 -69 0 -69 0 -121 -259
c-67 -142 -125 -258 -129 -258 -4 1 -66 119 -137 262 l-129 260 -66 0 -65 0 0
-365z"/>
<path d="M6402 6088 l3 -63 130 0 130 0 0 60 0 60 -133 3 -133 3 3 -63z"/>
<path d="M7031 6135 c-70 -20 -111 -46 -160 -102 -60 -67 -84 -139 -84 -248 0
-122 26 -189 103 -267 48 -48 68 -60 130 -79 182 -55 355 20 432 187 20 41 23
66 23 159 0 98 -3 116 -26 165 -37 79 -81 125 -153 160 -78 39 -182 48 -265
25z m221 -150 c125 -89 125 -311 0 -399 -73 -51 -184 -47 -253 11 -120 101
-95 332 42 402 64 32 153 26 211 -14z"/>
<path d="M7087 5832 c-22 -25 -21 -75 1 -95 42 -39 112 -9 112 46 0 57 -77 89
-113 49z"/>
<path d="M7620 5875 l0 -275 70 0 70 0 0 152 0 152 168 -242 167 -241 68 -1
67 0 0 365 0 365 -65 0 -65 0 0 -235 c0 -129 -3 -235 -7 -235 -5 0 -82 106
-173 235 l-164 235 -68 0 -68 0 0 -275z"/>
<path d="M6528 5750 c-4 -182 -8 -189 -112 -197 l-66 -6 0 -65 0 -65 83 5
c139 8 209 61 227 174 6 33 10 114 10 182 l0 122 -69 0 -70 0 -3 -150z"/>
</g>
</svg>
